# xmcd
# Track frame offsets:
# 150
# 14859
# 32234
# 47897
# 62732
# 76230
#
# Disc length: 1184 seconds
# Revision: 0
# Processed by: cddbd v1.5.2PL0 Copyright (c) Steve Scherf et al.
# Submitted via: VisiTrax 2.11.3.279 - For more info visit www.synapsa.com
#
DISCID=4d049e06
DTITLE=Whiskey Drop. The - Whiskey Drop. The
DYEAR=2015
DGENRE=Country
TTITLE0=Hearts and Diamonds
TTITLE1=Seven Days
TTITLE2=Cigarettes and Gin
TTITLE3=Running Wild
TTITLE4=Ship In A Bottle
TTITLE5=Love At Any Cost
EXTD=
EXTT0=
EXTT1=
EXTT2=
EXTT3=
EXTT4=
EXTT5=
PLAYORDER=
